<?xml version="1.0" standalone="no"?><!DOCTYPE svg PUBLIC "-//W3C//DTD SVG 1.1//EN" "http://www.w3.org/Graphics/SVG/1.1/DTD/svg11.dtd"><svg class="icon" width="200px" height="200.00px" viewBox="0 0 1024 1024" version="1.1" xmlns="http://www.w3.org/2000/svg"><path d="M489.6 422.4c0-12.4-10-22.4-22.4-22.4H288c-12.4 0-22.4 10-22.4 22.4s10 22.4 22.4 22.4h67.2v156.8c0 12.4 10 22.4 22.4 22.4 12.4 0 22.4-10 22.4-22.4V444.8h67.2c12.4 0 22.4-10 22.4-22.4zM288 713.6c-12.4 0-22.4 10-22.4 22.4s10 22.4 22.4 22.4h179.2c12.4 0 22.4-10 22.4-22.4s-10-22.4-22.4-22.4H288zM758.4 288c0-12.4-10-22.4-22.4-22.4H288c-12.4 0-22.4 10-22.4 22.4s10 22.4 22.4 22.4h448c12.4 0 22.4-10 22.4-22.4zM646.4 758.4c12.4 0 22.4-10 22.4-22.4V484.3l72.4 86.9c4.4 5.3 10.8 8 17.2 8 5.1 0 10.1-1.7 14.3-5.2 9.5-7.9 10.8-22 2.9-31.6L663.6 408c-8.5-10.2-25.9-10.2-34.4 0l-112 134.4c-7.9 9.5-6.6 23.6 2.9 31.6 9.5 7.9 23.6 6.6 31.6-2.9l72.4-86.9V736c-0.1 12.4 9.9 22.4 22.3 22.4z" fill="#ffffff" /><path d="M937.6 579.2c12.4 0 22.4-10 22.4-22.4V377.6C960 204.4 819.6 64 646.4 64H108.8C84.1 64 64 84.1 64 108.8v806.4c0 24.7 20.1 44.8 44.8 44.8h806.4c24.7 0 44.8-20.1 44.8-44.8V713.6c0-12.4-10-22.4-22.4-22.4-12.4 0-22.4 10-22.4 22.4v201.6H108.8V108.8h537.6c148.5 0 268.8 120.3 268.8 268.8v179.2c0 12.4 10 22.4 22.4 22.4z" fill="#ffffff" /></svg>